<svg xmlns="http://www.w3.org/2000/svg" viewBox="0 0 400 250">
<defs>
<linearGradient id="db" x1="0" y1="0" x2="0" y2="1"><stop offset="0" stop-color="#F3F0EA"/><stop offset="1" stop-color="#E2DCD0"/></linearGradient>
<linearGradient id="duct" x1="0" y1="0" x2="0" y2="1"><stop offset="0" stop-color="#E2E8F0"/><stop offset="0.5" stop-color="#CBD5E1"/><stop offset="1" stop-color="#94A3B8"/></linearGradient>
<radialGradient id="gf" cx="0.5" cy="0.8" r="0.6"><stop offset="0" stop-color="#CFE8FF"/><stop offset="0.5" stop-color="#5B9BD5"/><stop offset="1" stop-color="#2563EB"/></radialGradient>
</defs>
<style>.gflame{transform-origin:300px 176px;animation:gk 1.4s ease-in-out infinite}@keyframes gk{0%,100%{transform:scaleY(1)}50%{transform:scaleY(1.15)}}
.flow2{animation:fa 1.8s ease-in-out infinite}@keyframes fa{0%,100%{opacity:.35}50%{opacity:.9}}</style>
<rect width="400" height="250" fill="url(#db)"/>
<rect x="60" y="86" width="200" height="46" rx="8" fill="url(#duct)" stroke="#64748B" stroke-width="2"/>
<rect x="116" y="132" width="48" height="56" rx="6" fill="url(#duct)" stroke="#64748B" stroke-width="2"/>
<line x1="110" y1="86" x2="110" y2="132" stroke="#475569" stroke-width="2"/><line x1="200" y1="86" x2="200" y2="132" stroke="#475569" stroke-width="2"/>
<g class="flow2"><path d="M96 109 h26 m-7 -6 l7 6 -7 6" fill="none" stroke="#fff" stroke-width="3" stroke-linecap="round" stroke-linejoin="round"/>
<path d="M168 109 h26 m-7 -6 l7 6 -7 6" fill="none" stroke="#fff" stroke-width="3" stroke-linecap="round" stroke-linejoin="round"/></g>
<rect x="276" y="184" width="48" height="22" rx="5" fill="#475569"/>
<rect x="296" y="150" width="8" height="40" rx="3" fill="#64748B"/>
<path class="gflame" d="M300 192 q-16 -14 -6 -34 q-1 9 6 5 q-3 11 8 7 q3 10 -4 14 q9 8 -10 8 q-9 0 -10 -7 q-3 -9 8 -14 q-5 10 8 9z" fill="url(#gf)"/>
<circle cx="72" cy="109" r="3.5" fill="#64748B"/><circle cx="248" cy="109" r="3.5" fill="#64748B"/>
</svg>
