<svg xmlns="http://www.w3.org/2000/svg" viewBox="0 0 400 250">
<defs>
<linearGradient id="bg2" x1="0" y1="0" x2="0" y2="1"><stop offset="0" stop-color="#F2F6EC"/><stop offset="1" stop-color="#E4EDD8"/></linearGradient>
<linearGradient id="sh" x1="0" y1="0" x2="0" y2="1"><stop offset="0" stop-color="#A6B493"/><stop offset="1" stop-color="#6B7D5A"/></linearGradient>
<linearGradient id="gold" x1="0" y1="0" x2="1" y2="1"><stop offset="0" stop-color="#E0C98A"/><stop offset="1" stop-color="#C9A961"/></linearGradient>
</defs>
<style>.shine{animation:sn 3.2s ease-in-out infinite}@keyframes sn{0%,100%{opacity:.15}50%{opacity:.55}}
.chk{stroke-dasharray:40;stroke-dashoffset:40;animation:dr 2.6s ease-in-out infinite}@keyframes dr{0%{stroke-dashoffset:40}40%,100%{stroke-dashoffset:0}}</style>
<rect width="400" height="250" fill="url(#bg2)"/>
<path d="M200 44 L268 70 V128 C268 172 238 198 200 212 C162 198 132 172 132 128 V70 Z" fill="url(#sh)" stroke="#fff" stroke-width="5"/>
<path class="shine" d="M200 44 L268 70 V128 C268 150 256 168 240 182 L150 60 Z" fill="#fff"/>
<circle cx="200" cy="120" r="40" fill="#FDF4E8"/>
<path class="chk" d="M182 120 l12 13 l24 -28" fill="none" stroke="#6B7D5A" stroke-width="8" stroke-linecap="round" stroke-linejoin="round"/>
<g><circle cx="200" cy="206" r="16" fill="url(#gold)"/><path d="M200 196 l3 6 7 1 -5 5 1 7 -6 -3 -6 3 1 -7 -5 -5 7 -1z" fill="#fff"/></g>
<path d="M186 208 l-10 30 14 -8 14 8 -10 -30z" fill="url(#gold)" opacity="0"/>
</svg>
