<svg xmlns="http://www.w3.org/2000/svg" viewBox="0 0 400 250">
<defs>
<linearGradient id="wb" x1="0" y1="0" x2="0" y2="1"><stop offset="0" stop-color="#E9F5FA"/><stop offset="1" stop-color="#CFE8EF"/></linearGradient>
<linearGradient id="tank" x1="0" y1="0" x2="1" y2="0"><stop offset="0" stop-color="#F1F5F9"/><stop offset="0.5" stop-color="#FFFFFF"/><stop offset="1" stop-color="#CBD5E1"/></linearGradient>
</defs>
<style>.drop{animation:dp 2.2s ease-in infinite}@keyframes dp{0%{opacity:0;transform:translateY(-6px)}20%{opacity:1}100%{opacity:0;transform:translateY(26px)}}
.heat{animation:ht 2s ease-in-out infinite}@keyframes ht{0%,100%{opacity:.35}50%{opacity:.85}}</style>
<rect width="400" height="250" fill="url(#wb)"/>
<rect x="158" y="52" width="92" height="150" rx="20" fill="url(#tank)" stroke="#94A3B8" stroke-width="2"/>
<rect x="172" y="84" width="64" height="40" rx="6" fill="#E2F1F8" stroke="#7FB6CC" stroke-width="2"/>
<circle class="heat" cx="204" cy="104" r="12" fill="none" stroke="#E5664A" stroke-width="4"/>
<rect x="186" y="140" width="36" height="8" rx="4" fill="#CBD5E1"/><rect x="186" y="156" width="36" height="8" rx="4" fill="#CBD5E1"/>
<path d="M158 120 q-30 0 -30 -30 v-26" fill="none" stroke="#3B82F6" stroke-width="7" stroke-linecap="round"/>
<path d="M250 120 q30 0 30 -30 v-26" fill="none" stroke="#E5664A" stroke-width="7" stroke-linecap="round"/>
<g fill="#3B82F6"><path class="drop" d="M128 60 q6 8 0 12 q-6 -4 0 -12z"/><path class="drop" d="M280 60 q6 8 0 12 q-6 -4 0 -12z" style="animation-delay:1s"/></g>
</svg>
